<?xml version="1.0" standalone="no"?><!DOCTYPE svg PUBLIC "-//W3C//DTD SVG 1.1//EN"
        "http://www.w3.org/Graphics/SVG/1.1/DTD/svg11.dtd">
<svg t="1642676986901" class="icon" viewBox="0 0 1024 1024" version="1.1" xmlns="http://www.w3.org/2000/svg" p-id="9849"
     xmlns:xlink="http://www.w3.org/1999/xlink" width="200" height="200">
    <defs>
        <style type="text/css"></style>
    </defs>
    <path d="M628 242c-19.9 0-36-16.1-36-36v-42H432v42c0 19.9-16.1 36-36 36s-36-16.1-36-36v-42H200v724h624V164H664v42c0 19.9-16.1 36-36 36z m61.8 227.9c0 19.9-16.1 36-36 36H548v61.7h105.8c19.9 0 36 16.1 36 36s-16.1 36-36 36H548V722c0 19.9-16.1 36-36 36s-36-16.1-36-36v-82.3H370.2c-19.9 0-36-16.1-36-36s16.1-36 36-36H476V506H370.2c-19.9 0-36-16.1-36-36s16.1-36 36-36h58.1l-20.9-60.1c-6.5-18.8 3.4-39.3 22.2-45.8s39.3 3.4 45.8 22.2l29.1 83.7h14.9l29.1-83.7c6.5-18.8 27-28.7 45.8-22.2 18.8 6.5 28.7 27 22.2 45.8L595.6 434h58.1c19.9-0.1 36.1 16 36.1 35.9z"
          fill="#ffc7ea" p-id="9850"></path>
    <path d="M432 92h160v72H432z" fill="#ffa3e5" p-id="9851"></path>
    <path d="M824 92H664v72h160v724H200V164h160V92H200c-39.7 0-72 32.3-72 72v724c0 39.7 32.3 72 72 72h624c39.7 0 72-32.3 72-72V164c0-39.7-32.3-72-72-72z"
          fill="#ffc89e" p-id="9852"></path>
    <path d="M432 72h160v20h72V48c0-26.5-21.5-48-48-48H408c-26.5 0-48 21.5-48 48v44h72V72zM592 206c0 19.9 16.1 36 36 36s36-16.1 36-36v-42h-72v42zM396 242c19.9 0 36-16.1 36-36v-42h-72v42c0 19.9 16.1 36 36 36zM592 92h72v72h-72zM360 92h72v72h-72z"
          fill="#ff99c7" p-id="9853"></path>
    <path d="M475.5 350.2c-6.5-18.8-27-28.7-45.8-22.2-18.8 6.5-28.7 27-22.2 45.8l20.9 60.1h76.2l-29.1-83.7zM616.5 373.8c6.5-18.8-3.4-39.3-22.2-45.8s-39.3 3.4-45.8 22.2l-29.1 83.7h76.2l20.9-60.1z"
          fill="#ff99c7" p-id="9854"></path>
    <path d="M595.7 433.9H370.3c-19.9 0-36 16.1-36 36s16.1 36 36 36H476v61.7H370.2c-19.9 0-36 16.1-36 36s16.1 36 36 36H476V722c0 19.9 16.1 36 36 36s36-16.1 36-36v-82.3h105.8c19.9 0 36-16.1 36-36s-16.1-36-36-36H548V506h105.8c19.9 0 36-16.1 36-36s-16.1-36-36-36h-58.1z"
          fill="#f6ffa8" p-id="9855"></path>
</svg>
