<?xml version="1.0" standalone="no"?><!DOCTYPE svg PUBLIC "-//W3C//DTD SVG 1.1//EN"
        "http://www.w3.org/Graphics/SVG/1.1/DTD/svg11.dtd">
<svg t="1642677175613" class="icon" viewBox="0 0 1044 1024" version="1.1" xmlns="http://www.w3.org/2000/svg"
     p-id="29138" xmlns:xlink="http://www.w3.org/1999/xlink" width="203.90625" height="200">
    <defs>
        <style type="text/css"></style>
    </defs>
    <path d="M754.835364 999.134319V104.799235h166.765953v894.335084" fill="#FFDE66" p-id="29139"></path>
    <path d="M776.778253 999.134319V104.799235l-21.942889 16.299178h166.765953l-21.942889-16.299178v894.335084h43.885777v-923.795606h-210.651729v923.795606z"
          fill="#6E6E96" p-id="29140"></path>
    <path d="M857.96694 121.098413h41.691488v848.575384h-41.691488z" fill="#6E6E96" opacity=".21" p-id="29141"></path>
    <path d="M465.189236 990.357163V541.366168h166.765953v448.990995" fill="#ffbdc8" p-id="29142"></path>
    <path d="M487.132124 990.357163V541.366168l-21.942888 31.558262h166.765953l-21.942889-31.558262v448.990995h43.885777v-462.994947h-210.65173v462.994947z"
          fill="#6E6E96" p-id="29143"></path>
    <path d="M173.348819 990.357163V335.436548h166.765953v654.920615" fill="#a3ffdd" p-id="29144"></path>
    <path d="M195.291708 990.357163V335.436548l-21.942889 30.799038h166.765953l-21.942889-30.799038v654.920615h43.885777V317.807631h-210.651729v672.549532z"
          fill="#6E6E96" p-id="29145"></path>
    <path d="M1034.24294 1012.300052H32.185829v-1009.372871h43.885777v987.429982l-21.942889-21.942888h980.114223z"
          fill="#6E6E96" p-id="29146"></path>
    <path d="M276.480395 366.235586h41.691488v606.488272H276.480395zM568.320812 572.92443h41.691488v403.420005h-41.691488z"
          fill="#6E6E96" opacity=".21" p-id="29147"></path>
</svg>
