<?xml version="1.0" standalone="no"?><!DOCTYPE svg PUBLIC "-//W3C//DTD SVG 1.1//EN" "http://www.w3.org/Graphics/SVG/1.1/DTD/svg11.dtd"><svg t="1642676795170" class="icon" viewBox="0 0 1024 1024" version="1.1" xmlns="http://www.w3.org/2000/svg" p-id="6245" xmlns:xlink="http://www.w3.org/1999/xlink" width="200" height="200"><defs><style type="text/css"></style></defs><path d="M832 128a42.666667 42.666667 0 0 1 42.666667 42.666667v64c0 58.154667-33.792 108.117333-82.432 132.778666 11.776 32.341333 18.432 66.688 18.432 101.888v213.333334c0 94.122667-76.544 170.666667-170.666667 170.666666-2.602667 0-5.034667-0.64-7.637333-0.768A127.701333 127.701333 0 0 1 512 938.666667a127.701333 127.701333 0 0 1-120.362667-86.101334C389.034667 852.693333 386.602667 853.333333 384 853.333333c-94.122667 0-170.666667-76.544-170.666667-170.666666v-213.333334c0-35.2 6.656-69.546667 18.432-101.888C183.125333 342.784 149.333333 292.821333 149.333333 234.666667V170.666667a42.666667 42.666667 0 0 1 42.666667-42.666667h213.333333a42.666667 42.666667 0 0 1 42.666667 42.666667v6.954666a303.872 303.872 0 0 1 128 0V170.666667a42.666667 42.666667 0 0 1 42.666667-42.666667h213.333333zM725.333333 682.666667v-85.333334h-139.818666c-7.466667 12.8-18.048 23.381333-30.848 30.848V682.666667c0 47.061333 38.272 85.333333 85.333333 85.333333s85.333333-38.272 85.333333-85.333333z m-213.333333 170.666666c17.493333 0 32.469333-10.624 39.082667-25.728a170.709333 170.709333 0 0 1-39.082667-33.237333c-11.349333 12.928-24.32 24.192-39.082667 33.237333 6.613333 15.104 21.589333 25.728 39.082667 25.728z m-213.333333-170.666666c0 47.061333 38.272 85.333333 85.333333 85.333333s85.333333-38.272 85.333333-85.333333v-54.485334a85.504 85.504 0 0 1-30.848-30.848H298.666667v85.333334zM234.666667 213.333333v21.333334C234.666667 269.952 263.381333 298.666667 298.666667 298.666667s64-28.714667 64-64V213.333333h-128z m345.557333 55.210667a212.224 212.224 0 0 0-136.448 0 148.992 148.992 0 0 1-126.250667 113.536A211.626667 211.626667 0 0 0 298.666667 469.333333v42.666667h139.818666c14.805333-25.386667 42.026667-42.666667 73.514667-42.666667 31.488 0 58.709333 17.28 73.514667 42.666667H725.333333v-42.666667a211.626667 211.626667 0 0 0-18.858666-87.253333 148.992 148.992 0 0 1-126.250667-113.536zM661.333333 213.333333v21.333334c0 35.285333 28.714667 64 64 64s64-28.714667 64-64V213.333333h-128zM426.666667 384a42.666667 42.666667 0 1 1 0 85.333333 42.666667 42.666667 0 0 1 0-85.333333z m170.666666 85.333333a42.666667 42.666667 0 1 1 0-85.333333 42.666667 42.666667 0 0 1 0 85.333333z" fill="#000000" p-id="6246"></path></svg>