<?xml version="1.0" standalone="no"?><!DOCTYPE svg PUBLIC "-//W3C//DTD SVG 1.1//EN"
        "http://www.w3.org/Graphics/SVG/1.1/DTD/svg11.dtd">
<svg t="1642677148684" class="icon" viewBox="0 0 1024 1024" version="1.1" xmlns="http://www.w3.org/2000/svg"
     p-id="27251" xmlns:xlink="http://www.w3.org/1999/xlink" width="200" height="200">
    <defs>
        <style type="text/css"></style>
    </defs>
    <path d="M938.666667 298.666667v426.666666a213.418667 213.418667 0 0 1-213.333334 213.333334H298.666667a213.418667 213.418667 0 0 1-213.333334-213.333334V298.666667a213.12 213.12 0 0 1 213.333334-213.333334h426.666666a213.12 213.12 0 0 1 213.333334 213.333334z"
          fill="#ffa3c0" p-id="27252"></path>
    <path d="M693.162667 512a32.213333 32.213333 0 0 1-32 32h-117.333334v117.333333a32 32 0 0 1-64 0v-117.333333h-117.333333a32 32 0 1 1 0-64h117.333333V362.666667a32 32 0 0 1 64 0v117.333333h117.333334a31.957333 31.957333 0 0 1 32 32z"
          fill="#ffdbc7" p-id="27253"></path>
</svg>
